<?xml version="1.0" encoding="iso-8859-1"?>
<!-- Generator: Adobe Illustrator 18.0.0, SVG Export Plug-In . SVG Version: 6.00 Build 0)  -->
<!DOCTYPE svg PUBLIC "-//W3C//DTD SVG 1.1//EN" "http://www.w3.org/Graphics/SVG/1.1/DTD/svg11.dtd">
<svg version="1.1" id="Capa_1" xmlns="http://www.w3.org/2000/svg" xmlns:xlink="http://www.w3.org/1999/xlink" x="0px" y="0px"
	 viewBox="0 0 52.768 52.768" style="enable-background:new 0 0 52.768 52.768;" xml:space="preserve">
<g>
	<path style="fill:#1D1D1B;" d="M38.638,42.613c-4.894-3.802-11.886-3.403-17.145-0.656c-0.199,0.104-0.058,0.459,0.156,0.369
		c5.73-2.395,10.947-1.398,16.468,0.963C38.517,43.461,39.063,42.943,38.638,42.613z"/>
	<path style="fill:#1D1D1B;" d="M41.561,38.765c-5.329-4.749-13.666-4.987-20.019-2.489c-0.298,0.117-0.186,0.588,0.136,0.492
		c7.11-2.14,12.877-0.415,19.244,2.825C41.429,39.852,42.031,39.184,41.561,38.765z"/>
	<path style="fill:#1D1D1B;" d="M42.451,33.861c-4.198-5.337-13.013-6.178-18.692-3.02c-0.309,0.172-0.102,0.691,0.244,0.578
		c6.796-2.224,12.064-0.576,17.703,3.408C42.326,35.265,42.845,34.361,42.451,33.861z"/>
	<path style="fill:#1D1D1B;" d="M31.235,15.55c-1.176,1.977-1.034,4.506-0.38,6.631c0.137,0.445,0.791,0.261,0.695-0.192
		c-0.454-2.147-0.043-4.045,0.376-6.148C32.007,15.433,31.463,15.166,31.235,15.55z"/>
	<path style="fill:#1D1D1B;" d="M33.131,22.832c0.002-0.131,0.002-0.261,0.009-0.381c0.005-0.076,0.021-0.146,0.028-0.221
		c0.25,0.016,0.487-0.104,0.536-0.433c0.251-1.661,0.671-3.211,1.069-4.806c0.758,1.587,2.711,2.595,4.433,1.784
		c1.406-0.662,2.209-2.55,1.647-3.957c1.458,0.5,3.191,0.162,4.196-1.079c1.23-1.518,1.163-3.836-0.363-5.113
		c-0.093-0.078-0.2-0.112-0.307-0.121c0.83-1.31,0.408-3.315-0.897-4.191c-1.11-0.745-2.979-0.642-4.026,0.281
		c-0.159-1.43-1.128-2.701-2.603-2.991c-1.186-0.234-2.584,0.218-3.273,1.217c-0.051-0.625-0.275-1.22-0.705-1.664
		c-1.369-1.413-3.692-0.801-4.652,0.698c-0.506-1.199-1.86-2.099-3.175-1.797c-0.851,0.196-1.545,0.809-1.905,1.595
		C22.85,2.3,22.859,2.872,23.074,3.457c-0.663-0.238-1.409-0.264-2.124-0.115c-0.195-0.93-1.212-1.595-2.179-1.488
		c-0.578,0.064-1.054,0.363-1.36,0.785c-0.593-1.151-1.807-1.999-3.163-1.993c-2.166,0.008-3.66,2.024-3.426,4.064
		c-1.496-0.358-3.2,0.552-3.753,2.021c-0.614,1.63,0.165,3.611,1.741,4.288c-1.588,0.771-2.324,3.066-1.589,4.646
		c0.741,1.593,2.588,2.243,4.184,1.796c-0.098,1.273,0.947,2.492,2.236,2.624c1.342,0.137,2.467-0.853,2.722-2.1
		c1.275,1.953,2.757,3.727,3.923,5.762c-4.599,1.322-8.724,3.785-10.045,7.793c-1.264,3.835,0.333,8.156,2.85,11.129
		c3.615,4.268,11.815,4.212,13.444,9.821c0.106,0.365,0.581,0.355,0.729,0.07c0.015-0.012,0.031-0.017,0.045-0.032
		c5.447-5.816,17.301-5.708,18.437-15.218C46.678,29.528,40.189,24.079,33.131,22.832z M33.481,3.992
		c0.078,0.007,0.158-0.006,0.229-0.072c0.77-0.725,1.643-1.458,2.783-1.299c1.236,0.172,2.179,1.23,2.31,2.454
		c0.006,0.055,0.022,0.103,0.045,0.145c-0.328-0.21-0.663-0.41-0.999-0.616c-0.531-0.327-0.963,0.468-0.479,0.82
		c0.652,0.474,1.277,0.974,1.997,1.338c0.454,0.23,1.006-0.374,0.575-0.746c-0.083-0.072-0.177-0.126-0.263-0.194
		c0.909-0.749,2.016-1.303,3.087-0.393c1,0.85,0.858,2.145,0.437,3.237c-0.126,0.327,0.333,0.697,0.62,0.477
		c0.002-0.002,0.003-0.003,0.005-0.005c0.013,0.039,0.021,0.078,0.046,0.119c0.634,1.044,0.885,2.478,0.222,3.571
		c-0.736,1.213-2.306,1.616-3.591,1.151c0.184-0.226,0.328-0.489,0.375-0.809c0.074-0.504-0.611-0.721-0.78-0.215
		c-0.206,0.62-1.042,1.05-1.648,0.751c-0.493-0.243-0.919,0.463-0.435,0.744c0.456,0.264,0.986,0.307,1.469,0.187
		c0.36,1.003,0.084,2.266-0.94,2.787c-1.509,0.768-3.031-0.851-3.434-2.151c-0.096-0.309-0.454-0.286-0.591-0.058
		c-0.116,0-0.231,0.044-0.325,0.163c-1.259,1.596-1.815,3.914-1.705,5.955c-0.146,0.255-0.271,0.523-0.366,0.808
		c-0.052,0.156-0.095,0.336-0.119,0.52c-1.14-0.129-2.436-0.176-3.818-0.132c0.148-2.488,0.156-5.083-0.117-7.577
		c0.181,0.105,0.381,0.183,0.579,0.248c-0.003,0.886,0.75,1.727,1.731,1.477c0.416-0.106,0.324-0.739-0.101-0.742
		c-0.304-0.003-0.549-0.295-0.545-0.582c0.75-0.018,1.512-0.272,2.042-0.808c0.889-0.899,0.973-2.256,0.43-3.305
		c0.428-0.118,0.839-0.329,1.156-0.566c0.822-0.614,1.368-1.599,1.276-2.64c-0.108-1.222-0.996-2.113-2.067-2.453
		C33.014,5.174,33.325,4.605,33.481,3.992z M23.972,4.745c0.296,0.16,0.568-0.209,0.351-0.456c-0.23-0.262-0.5-0.467-0.792-0.628
		c-0.09-0.992,0.643-2.229,1.599-2.475c1.398-0.36,2.361,0.987,2.403,2.23c0.015,0.453,0.64,0.542,0.788,0.119
		c0.187-0.013,0.362-0.115,0.409-0.33c0.279-1.287,2.178-2.104,3.198-1.101c1.093,1.074,0.036,2.796-1.148,3.204
		c-0.152,0.053-0.232,0.162-0.274,0.282c-0.212-0.341-0.426-0.681-0.638-1.024c-0.225-0.365-0.726-0.047-0.562,0.328
		c0.501,1.142,0.939,2.317,1.64,3.353c0.255,0.377,0.976,0.151,0.787-0.332c-0.223-0.572-0.506-1.11-0.811-1.636
		c1.176-0.176,2.589,0.654,2.572,1.948c-0.009,0.688-0.45,1.285-1.028,1.625c-0.407,0.239-0.827,0.264-1.26,0.295
		c-0.039-0.024-0.069-0.057-0.109-0.079c-0.249-0.137-0.524,0.026-0.606,0.245c-0.18,0.191-0.105,0.56,0.104,0.72
		c0.121,0.092,0.252,0.155,0.388,0.204c0.379,0.727,0.342,1.714-0.356,2.229c-0.384,0.283-0.875,0.358-1.334,0.256
		c-0.505-0.112-0.888-0.485-1.42-0.487c-0.12,0-0.214,0.044-0.295,0.105c-0.213,0.001-0.45,0.159-0.474,0.403
		c-0.292,2.879-0.103,5.937,0.23,8.826c-0.336,0.019-0.67,0.035-1.013,0.065c0.084-2.85-0.486-5.725-1.323-8.437
		c-0.155-0.501-0.645-0.616-1.031-0.479c-0.047-0.004-0.097,0.002-0.154,0.024c-0.542,0.21-1.218,0.21-1.76-0.047
		c-0.112-0.221-0.294-0.383-0.558-0.458c-0.469-0.591-0.491-1.491-0.196-2.154c0.033-0.073,0.035-0.149,0.016-0.218
		c0.08,0.012,0.159,0.029,0.241,0.036c0.371,0.031,0.46-0.591,0.089-0.656c-1.958-0.343-3.43-2.593-2.417-4.467
		C20.177,4.019,22.373,3.88,23.972,4.745z M25.211,22.752c-0.839,0.102-1.69,0.239-2.538,0.409c-0.512-2.031-1.171-4.184-2.307-5.99
		c0.6-0.191,1.206-0.749,1.45-1.151c0.169-0.278,0.319-0.736,0.374-1.205c0.444,0.082,0.908,0.048,1.34-0.12
		C24.391,17.342,24.833,20.005,25.211,22.752z M16.73,17.094c-0.153-0.105-0.322-0.07-0.448,0.027
		c-0.218-0.194-0.626-0.176-0.692,0.178c-0.158,0.851-0.965,1.611-1.882,1.46c-0.751-0.124-1.198-0.758-1.389-1.44
		c0.279,0.127,0.585,0.204,0.913,0.207c0.451,0.004,0.582-0.745,0.11-0.811c-0.635-0.089-1.082-0.495-1.193-1.13
		c-0.124-0.704-1.306-0.403-1.085,0.299c0.093,0.296,0.248,0.555,0.433,0.784c-1.254,0.264-2.726-0.3-3.26-1.513
		c-0.669-1.522,0.281-2.906,1.532-3.706c0.186-0.119,0.205-0.309,0.129-0.457c0.098-0.172,0.081-0.399-0.146-0.532
		C8.66,9.818,7.787,8.413,8.412,7.147c0.446-0.904,1.39-1.306,2.34-1.382c-0.109,0.485-0.111,0.989,0.044,1.434
		c0.137,0.392,0.67,0.229,0.61-0.168c-0.075-0.497,0.029-0.918,0.238-1.279c0.178-0.027,0.259-0.175,0.247-0.344
		c0.323-0.373,0.762-0.669,1.229-0.897c0.371-0.181,0.178-0.753-0.204-0.753c-0.458-0.001-0.85,0.169-1.183,0.426
		c0.207-1.222,1.203-2.385,2.516-2.372c1.548,0.014,2.448,1.548,2.498,2.934c0.019,0.537,0.835,0.691,0.967,0.131
		c0.088-0.373,0.08-0.744,0.033-1.108c0.194-0.465,0.594-0.878,1.112-0.878c0.563,0,0.848,0.386,1.097,0.804
		c-0.796,0.38-1.472,0.984-1.81,1.781c-0.919,2.162,0.535,4.64,2.658,5.278c-0.854,0.905-0.841,2.288-0.048,3.235
		c0.006,0.007,0.014,0.013,0.02,0.021c0.031,0.156,0.085,0.308,0.106,0.481c0.038,0.308-0.051,0.604-0.189,0.875
		c-0.15,0.294-0.335,0.518-0.611,0.703c-0.113,0.076-0.24,0.13-0.365,0.188c-0.098-0.125-0.19-0.255-0.295-0.374
		c-0.19-0.217-0.574,0.012-0.485,0.282c0.811,2.451,2.117,4.721,2.993,7.159c-0.312,0.07-0.624,0.147-0.934,0.227
		C20.205,21.118,18.864,18.554,16.73,17.094z M39.638,43.611c-4.256,2.873-9.032,3.842-12.386,7.794
		c-0.701-5.556-8.599-5.429-12.078-8.569c-4.502-4.063-5.66-11.476,0.023-15.12c3.614-2.317,9.262-3.462,13.495-3.485
		c5.012-0.027,10.167,1.383,13.279,5.593C45.463,34.546,44.436,40.372,39.638,43.611z"/>
</g>
<g>
</g>
<g>
</g>
<g>
</g>
<g>
</g>
<g>
</g>
<g>
</g>
<g>
</g>
<g>
</g>
<g>
</g>
<g>
</g>
<g>
</g>
<g>
</g>
<g>
</g>
<g>
</g>
<g>
</g>
</svg>
